<svg width="512" height="512" viewBox="0 0 512 512" fill="none" xmlns="http://www.w3.org/2000/svg">
  <rect width="512" height="512" rx="48" fill="#F2F8F3"/>
  <rect x="48" y="48" width="416" height="416" rx="32" fill="#FFFFFF"/>
  <rect x="96" y="96" width="96" height="96" rx="18" fill="#248E93"/>
  <rect x="320" y="96" width="96" height="96" rx="18" fill="#248E93"/>
  <rect x="96" y="320" width="96" height="96" rx="18" fill="#248E93"/>
  <rect x="126" y="126" width="36" height="36" rx="8" fill="#F2F8F3"/>
  <rect x="350" y="126" width="36" height="36" rx="8" fill="#F2F8F3"/>
  <rect x="126" y="350" width="36" height="36" rx="8" fill="#F2F8F3"/>
  <rect x="234" y="96" width="28" height="28" rx="8" fill="#77B9AF"/>
  <rect x="274" y="96" width="28" height="28" rx="8" fill="#248E93"/>
  <rect x="234" y="136" width="28" height="28" rx="8" fill="#248E93"/>
  <rect x="274" y="136" width="28" height="28" rx="8" fill="#DCE8C7"/>
  <rect x="234" y="176" width="28" height="28" rx="8" fill="#77B9AF"/>
  <rect x="274" y="176" width="28" height="28" rx="8" fill="#248E93"/>
  <rect x="216" y="240" width="40" height="40" rx="10" fill="#248E93"/>
  <rect x="272" y="240" width="40" height="40" rx="10" fill="#77B9AF"/>
  <rect x="328" y="240" width="40" height="40" rx="10" fill="#248E93"/>
  <rect x="216" y="296" width="40" height="40" rx="10" fill="#DCE8C7"/>
  <rect x="272" y="296" width="40" height="40" rx="10" fill="#248E93"/>
  <rect x="328" y="296" width="40" height="40" rx="10" fill="#77B9AF"/>
  <rect x="216" y="352" width="40" height="40" rx="10" fill="#248E93"/>
  <rect x="272" y="352" width="40" height="40" rx="10" fill="#DCE8C7"/>
  <rect x="328" y="352" width="40" height="40" rx="10" fill="#248E93"/>
  <text x="256" y="456" text-anchor="middle" fill="#184B52" font-size="24" font-family="IBM Plex Sans, Segoe UI, sans-serif">
    Replace with contact QR
  </text>
</svg>
