<svg xmlns="http://www.w3.org/2000/svg" viewBox="0 0 64 64" role="img" aria-label="Virtuals Whale Radar">
  <defs>
    <linearGradient id="vwr-mark" x1="0" y1="0" x2="1" y2="1">
      <stop offset="0%" stop-color="#43a7ac" />
      <stop offset="100%" stop-color="#1f7d83" />
    </linearGradient>
  </defs>
  <path
    d="M8 35.5c7.5-2.6 12.6-2.4 17.1 0.5 3 1.9 5.6 4.8 8.2 9.1 1.2 1.9 2.2 2.8 3.1 2.7 1.4-.2 2.8-2.9 4.2-8.1 1.4-4.8 2.2-8 2.4-9.4-3.7-3.6-6.1-6.5-7.2-8.7-1.3-2.3-1.9-4.8-1.9-7.2 0-6.1 4.4-10.4 10.5-10.4 5.9 0 9.9 4 9.9 10 0 6.9-3.9 13.4-11.6 19.7 2.1 1.1 4.5 2 7.2 2.7 2.5.6 4.9.9 7.1.9-2.2 2.2-4.8 3.4-7.8 3.4-3.7 0-7.4-1.2-11.2-3.6-1.6 5.2-3.4 9.4-5.5 12.3-2.2 3.1-4.8 4.6-7.7 4.6-3 0-5.7-1.3-8.1-4-3.3-3.6-6.5-6.7-9.8-9.2-3.5-2.6-8.1-4.7-13.9-6.3Z"
    fill="url(#vwr-mark)"
  />
  <circle cx="57.5" cy="25.5" r="2.9" fill="#1f7d83" />
</svg>
